<?xml version="1.0" encoding="UTF-8"?>
<svg version="1.1" xmlns="http://www.w3.org/2000/svg" width="500" height="500">
<path d="M0 0 C9 0 9 0 11.78515625 2.45703125 C12.57433297 3.55451656 13.33260709 4.67472575 14.0625 5.8125 C14.67520752 6.68588013 14.67520752 6.68588013 15.30029297 7.5769043 C16.14037234 8.77736696 16.96854292 9.98625037 17.78466797 11.203125 C19.65292271 13.96534978 21.64440606 16.62979075 23.625 19.3125 C25.295625 21.6328125 25.295625 21.6328125 27 24 C27.33 16.08 27.66 8.16 28 0 C30.97 0 33.94 0 37 0 C37 13.2 37 26.4 37 40 C27 40 27 40 24.62719727 38.31933594 C24.11213623 37.54879883 23.5970752 36.77826172 23.06640625 35.984375 C22.48052734 35.14519531 21.89464844 34.30601562 21.29101562 33.44140625 C20.72060547 32.55324219 20.15019531 31.66507812 19.5625 30.75 C18.96501953 29.87730469 18.36753906 29.00460937 17.75195312 28.10546875 C16.64153938 26.48017042 15.54484835 24.8453441 14.46704102 23.19824219 C13.05333609 21.07991981 11.52804007 19.03738676 10 17 C9.67 24.59 9.34 32.18 9 40 C6.03 40 3.06 40 0 40 C0 26.8 0 13.6 0 0 Z " fill="#00C4B4" transform="translate(439,232)"/>
<path d="M0 0 C9 0 9 0 11.2434082 1.66479492 C11.75734131 2.42896729 12.27127441 3.19313965 12.80078125 3.98046875 C13.38537109 4.81513672 13.96996094 5.64980469 14.57226562 6.50976562 C15.14654297 7.39341797 15.72082031 8.27707031 16.3125 9.1875 C17.49577312 10.9103765 18.67935816 12.63303883 19.86328125 14.35546875 C20.37157471 15.12528076 20.87986816 15.89509277 21.40356445 16.68823242 C23.1476365 19.21378957 25.08266178 21.60332723 27 24 C27.33 16.08 27.66 8.16 28 0 C30.97 0 33.94 0 37 0 C37 13.2 37 26.4 37 40 C27 40 27 40 24.08203125 37.5078125 C23.29170498 36.40364605 22.5358492 35.27415843 21.8125 34.125 C21.40596191 33.54016846 20.99942383 32.95533691 20.58056641 32.3527832 C19.7567236 31.16143712 18.94692375 29.96025071 18.15185547 28.74951172 C16.46065171 26.18080334 14.66035505 23.69130779 12.875 21.1875 C11.92625 19.805625 10.9775 18.42375 10 17 C9.67 24.59 9.34 32.18 9 40 C6.03 40 3.06 40 0 40 C0 26.8 0 13.6 0 0 Z " fill="#FFFFFF" transform="translate(176,232)"/>
<path d="M0 0 C4.1645337 3.21926481 7.16752562 7.44007685 8.82421875 12.41015625 C9.51931447 19.46366852 9.32810099 25.68021718 4.82421875 31.41015625 C-1.05351436 36.92655331 -5.88806487 38.74291807 -13.8671875 38.625 C-21.24357021 37.9385346 -25.37401901 33.71223317 -29.92578125 28.34765625 C-32.8086919 23.87914474 -32.65462198 18.55551751 -32.17578125 13.41015625 C-30.04324795 6.67584055 -26.07552788 2.2164444 -20.17578125 -1.58984375 C-13.36986227 -3.67388318 -6.24611734 -3.53482097 0 0 Z M-20.17578125 9.41015625 C-23.34533322 13.34477249 -23.70926923 16.43093512 -23.17578125 21.41015625 C-21.38540672 25.55628673 -19.32191173 27.61978172 -15.17578125 29.41015625 C-10.85770179 29.95973 -8.73249231 29.70426775 -4.86328125 27.66015625 C-1.05957526 24.47565821 -0.34562582 22.93875739 0.19921875 18.03515625 C-0.2474674 13.71719018 -1.40735235 11.71689077 -4.17578125 8.41015625 C-9.16319383 4.62660188 -15.52195092 5.66123737 -20.17578125 9.41015625 Z " fill="#00C4B4" transform="translate(413.17578125,234.58984375)"/>
<path d="M0 0 C1.37478516 0.01740234 1.37478516 0.01740234 2.77734375 0.03515625 C3.69644531 0.04417969 4.61554688 0.05320313 5.5625 0.0625 C6.27277344 0.07410156 6.98304688 0.08570313 7.71484375 0.09765625 C9.99571333 5.63263214 12.27431484 11.16853395 14.55078125 16.70532227 C15.32619307 18.5903471 16.1022338 20.47511336 16.87890625 22.35961914 C17.99252513 25.06199148 19.10390919 27.76527324 20.21484375 30.46875 C20.56482422 31.31666611 20.91480469 32.16458221 21.27539062 33.03819275 C23.71484375 38.98378454 23.71484375 38.98378454 23.71484375 40.09765625 C20.08484375 40.09765625 16.45484375 40.09765625 12.71484375 40.09765625 C12.05484375 38.11765625 11.39484375 36.13765625 10.71484375 34.09765625 C5.10484375 33.76765625 -0.50515625 33.43765625 -6.28515625 33.09765625 C-6.61515625 35.07765625 -6.94515625 37.05765625 -7.28515625 39.09765625 C-8.28515625 40.09765625 -8.28515625 40.09765625 -10.5703125 40.1953125 C-11.94509766 40.17791016 -11.94509766 40.17791016 -13.34765625 40.16015625 C-14.26675781 40.15113281 -15.18585938 40.14210938 -16.1328125 40.1328125 C-16.84308594 40.12121094 -17.55335938 40.10960937 -18.28515625 40.09765625 C-14.76483602 30.58588904 -11.15208406 21.11155302 -7.47265625 11.66015625 C-6.87723022 10.12282837 -6.87723022 10.12282837 -6.26977539 8.55444336 C-5.89715576 7.60061768 -5.52453613 6.64679199 -5.140625 5.6640625 C-4.80699951 4.80756104 -4.47337402 3.95105957 -4.12963867 3.06860352 C-2.86735127 0.12253638 -2.86735127 0.12253638 0 0 Z M1.71484375 12.09765625 C1.04426488 13.88786235 0.37849685 15.67987114 -0.28515625 17.47265625 C-0.65640625 18.47039062 -1.02765625 19.468125 -1.41015625 20.49609375 C-2.39141902 22.95613686 -2.39141902 22.95613686 -2.28515625 25.09765625 C1.01484375 25.09765625 4.31484375 25.09765625 7.71484375 25.09765625 C7.28171875 23.50953125 6.84859375 21.92140625 6.40234375 20.28515625 C6.03689453 18.94517578 6.03689453 18.94517578 5.6640625 17.578125 C4.69476185 15.04517887 3.76474771 13.82600665 1.71484375 12.09765625 Z " fill="#00C4B4" transform="translate(303.28515625,231.90234375)"/>
<path d="M0 0 C1.37478516 0.01740234 1.37478516 0.01740234 2.77734375 0.03515625 C3.69644531 0.04417969 4.61554687 0.05320313 5.5625 0.0625 C6.27277344 0.07410156 6.98304687 0.08570313 7.71484375 0.09765625 C9.85541719 5.47110283 11.99154897 10.84628505 14.12353516 16.22314453 C14.84984658 18.05305935 15.57738182 19.88248892 16.30615234 21.71142578 C17.35183634 24.33630601 18.39314534 26.96288461 19.43359375 29.58984375 C19.76170044 30.41072479 20.08980713 31.23160583 20.42785645 32.07736206 C22.71484375 37.86991284 22.71484375 37.86991284 22.71484375 40.09765625 C19.41484375 40.09765625 16.11484375 40.09765625 12.71484375 40.09765625 C11.72484375 36.63265625 11.72484375 36.63265625 10.71484375 33.09765625 C5.10484375 33.09765625 -0.50515625 33.09765625 -6.28515625 33.09765625 C-6.94515625 35.40765625 -7.60515625 37.71765625 -8.28515625 40.09765625 C-11.58515625 40.09765625 -14.88515625 40.09765625 -18.28515625 40.09765625 C-15.8731134 32.47357676 -12.9667044 25.07127874 -9.98681641 17.65625 C-9.15136363 15.5757604 -8.32155341 13.49307874 -7.4921875 11.41015625 C-6.96257183 10.08710654 -6.43263592 8.76418496 -5.90234375 7.44140625 C-5.42394043 6.24708984 -4.94553711 5.05277344 -4.45263672 3.82226562 C-2.86732209 0.12253513 -2.86732209 0.12253513 0 0 Z M1.71484375 11.09765625 C1.04224024 12.86624316 0.3769598 14.63761641 -0.28515625 16.41015625 C-0.65640625 17.39628906 -1.02765625 18.38242188 -1.41015625 19.3984375 C-2.43934127 22.10037281 -2.43934127 22.10037281 -2.28515625 25.09765625 C1.01484375 25.09765625 4.31484375 25.09765625 7.71484375 25.09765625 C6.06484375 20.47765625 4.41484375 15.85765625 2.71484375 11.09765625 C2.38484375 11.09765625 2.05484375 11.09765625 1.71484375 11.09765625 Z " fill="#FFFFFF" transform="translate(23.28515625,231.90234375)"/>
<path d="M0 0 C3.3 0 6.6 0 10 0 C13.3 9.24 16.6 18.48 20 28 C21.60875 23.854375 21.60875 23.854375 23.25 19.625 C25.79707966 13.06844218 28.36949847 6.5236438 31 0 C34.3 0 37.6 0 41 0 C38.56332953 8.80621259 35.24578216 17.17492597 31.8125 25.625 C31.24764205 27.02457627 30.68318594 28.42431479 30.11914062 29.82421875 C28.750716 33.21802673 27.37688565 36.60961443 26 40 C22.37 40 18.74 40 15 40 C11.34894544 32.09924951 7.93384794 24.13748991 4.6875 16.0625 C4.23310547 14.95326172 3.77871094 13.84402344 3.31054688 12.70117188 C2.88193359 11.63576172 2.45332031 10.57035156 2.01171875 9.47265625 C1.62459717 8.51625244 1.23747559 7.55984863 0.83862305 6.57446289 C0 4 0 4 0 0 Z " fill="#FFFFFF" transform="translate(93,232)"/>
<path d="M0 0 C2.65868909 1.77245939 3.59886916 2.77422056 4.625 5.75 C2.875 7.8125 2.875 7.8125 0.625 9.75 C-1.25 9.5625 -1.25 9.5625 -3.375 8.75 C-5.37288438 8.40421232 -7.37259451 8.06856451 -9.375 7.75 C-9.375 9.07 -9.375 10.39 -9.375 11.75 C-8.01955078 12.43835938 -8.01955078 12.43835938 -6.63671875 13.140625 C-5.4450523 13.75991623 -4.25366034 14.37973585 -3.0625 15 C-1.89074219 15.60328125 -0.71898437 16.2065625 0.48828125 16.828125 C3.45717555 18.64717356 5.002374 19.71614646 6.625 22.75 C7.4812083 27.49385682 7.30906186 31.53389003 4.9375 35.75 C0.50619731 39.582478 -3.44857562 40.14631871 -9.1640625 40.00390625 C-13.53021756 39.50249268 -16.44747997 37.48725951 -19.8125 34.8125 C-21.375 32.75 -21.375 32.75 -21.5 30.6875 C-19.8106229 27.77801721 -17.39510781 27.03515226 -14.375 25.75 C-13.6015625 26.74 -13.6015625 26.74 -12.8125 27.75 C-9.57504245 30.40637543 -7.44947719 30.06342132 -3.375 29.75 C-3.375 28.43 -3.375 27.11 -3.375 25.75 C-4.35082031 25.32589844 -5.32664062 24.90179688 -6.33203125 24.46484375 C-7.61774365 23.87360374 -8.90286981 23.28108774 -10.1875 22.6875 C-10.83009766 22.41228516 -11.47269531 22.13707031 -12.13476562 21.85351562 C-15.66391142 20.18951424 -17.68867474 18.85154972 -19.32421875 15.23046875 C-20.56164987 11.13176567 -20.59061466 8.85269946 -19.375 4.75 C-14.03104233 -1.71900139 -7.72969737 -2.86285088 0 0 Z " fill="#00C4B4" transform="translate(359.375,233.25)"/>
<path d="M0 0 C0.721875 0.00257813 1.44375 0.00515625 2.1875 0.0078125 C2.909375 0.00523437 3.63125 0.00265625 4.375 0 C6.1875 0.1328125 6.1875 0.1328125 7.1875 1.1328125 C7.27540975 3.42432667 7.29444038 5.71853774 7.28515625 8.01171875 C7.2837413 8.6983812 7.28232635 9.38504364 7.28086853 10.09251404 C7.27525479 12.29349051 7.26270007 14.49436659 7.25 16.6953125 C7.24498676 18.18424333 7.24042355 19.67317574 7.23632812 21.16210938 C7.22528093 24.81904325 7.20800713 28.47591808 7.1875 32.1328125 C11.4775 32.1328125 15.7675 32.1328125 20.1875 32.1328125 C20.1875 34.7728125 20.1875 37.4128125 20.1875 40.1328125 C12.5975 40.1328125 5.0075 40.1328125 -2.8125 40.1328125 C-2.83540734 34.5968726 -2.85533491 29.06109595 -2.86743164 23.52514648 C-2.87247244 21.6403752 -2.87930498 19.75560785 -2.88793945 17.87084961 C-2.90001617 15.16779614 -2.90573068 12.46479419 -2.91015625 9.76171875 C-2.91531754 8.91380264 -2.92047882 8.06588654 -2.92579651 7.192276 C-2.92599195 5.17210182 -2.87456211 3.15203316 -2.8125 1.1328125 C-1.8125 0.1328125 -1.8125 0.1328125 0 0 Z " fill="#FFFFFF" transform="translate(62.8125,231.8671875)"/>
<path d="M0 0 C2.97 0 5.94 0 9 0 C9.09911652 4.89292532 9.17158399 9.78526221 9.21972656 14.67895508 C9.23980207 16.34247013 9.26706876 18.00591496 9.30175781 19.66918945 C9.35045766 22.0647924 9.37300856 24.45945992 9.390625 26.85546875 C9.41127014 27.5952446 9.43191528 28.33502045 9.45318604 29.09721375 C9.45477859 32.788885 9.12059871 34.812917 7.10058594 37.9465332 C4.86631116 40.13069001 3.9397479 40.9575926 0.8359375 41.09765625 C-1.44270833 41.06510417 -3.72135417 41.03255208 -6 41 C-6 38.03 -6 35.06 -6 32 C-4.35 31.67 -2.7 31.34 -1 31 C-0.67 20.77 -0.34 10.54 0 0 Z " fill="#00C4B4" transform="translate(261,232)"/>
<path d="M0 0 C2.97 0 5.94 0 9 0 C9 13.2 9 26.4 9 40 C6.03 40 3.06 40 0 40 C0 26.8 0 13.6 0 0 Z " fill="#FFFFFF" transform="translate(148,232)"/>
</svg>
