<?xml version="1.0" encoding="UTF-8"?>
<svg version="1.1" xmlns="http://www.w3.org/2000/svg" width="1493" height="139">
<path d="M0 0 C30.68946396 0 30.68946396 0 38 7 C39.67578125 9.20703125 39.67578125 9.20703125 41.3125 11.8125 C45.31826655 18.00254302 49.47410068 24.07429043 53.6875 30.125 C54.72547729 31.61592163 54.72547729 31.61592163 55.78442383 33.13696289 C62.08758995 42.16605987 68.51500419 51.10098093 75 60 C75.86090433 61.18473073 76.72159568 62.36961627 77.58203125 63.5546875 C79.38601512 66.03792974 81.19177933 68.51984235 83 71 C84.11287264 67.66138207 84.23936048 64.93504268 84.38891602 61.41723633 C84.43302612 60.42171501 84.43302612 60.42171501 84.47802734 59.40608215 C84.57409378 57.21488795 84.66402478 55.02348714 84.75390625 52.83203125 C84.81936014 51.31172584 84.88519672 49.79143687 84.95140076 48.27116394 C85.12454389 44.27152859 85.29248451 40.27169104 85.45935059 36.27178955 C85.63057219 32.189522 85.80670217 28.10746659 85.98242188 24.02539062 C86.32642478 16.01712537 86.66447923 8.00862512 87 0 C96.57 0 106.14 0 116 0 C116 41.58 116 83.16 116 126 C83.06677384 126 83.06677384 126 76 120 C73.98727855 117.77231422 72.38693758 115.39463348 70.79296875 112.85546875 C70.11661125 111.8242968 70.11661125 111.8242968 69.42658997 110.77229309 C67.99784106 108.58711594 66.59215147 106.38822575 65.1875 104.1875 C64.25872974 102.75484146 63.32840035 101.32319243 62.39648438 99.89257812 C60.99984062 97.7482433 59.60412602 95.60339336 58.21403503 93.45480347 C51.51852131 83.12285802 44.51290088 72.98648565 37.3125 63 C36.88517578 62.40445313 36.45785156 61.80890625 36.01757812 61.1953125 C35.01313205 59.79585954 34.00681602 58.39774892 33 57 C32.23995454 63.85902979 31.76746803 70.68732086 31.5 77.58203125 C31.45939453 78.55806808 31.41878906 79.53410492 31.37695312 80.53971863 C31.24855278 83.63054023 31.12388219 86.72149425 31 89.8125 C30.87590643 92.89278351 30.75087672 95.97301551 30.62304688 99.05314636 C30.54400181 100.958746 30.46700429 102.86443228 30.39257812 104.7702179 C30.09856971 111.87425252 29.54639644 118.89684627 29 126 C19.43 126 9.86 126 0 126 C0 84.42 0 42.84 0 0 Z " fill="#00C4B4" transform="translate(1365,9)"/>
<path d="M0 0 C30.82656367 0 30.82656367 0 37.04443359 5.95947266 C37.53250488 6.6457373 38.02057617 7.33200195 38.5234375 8.0390625 C39.09288086 8.82829102 39.66232422 9.61751953 40.24902344 10.43066406 C40.8268457 11.27854492 41.40466797 12.12642578 42 13 C42.60618164 13.88139648 43.21236328 14.76279297 43.83691406 15.67089844 C45.79123046 18.55641882 47.71126939 21.46242183 49.625 24.375 C51.03566482 26.50443213 52.44713374 28.63333179 53.859375 30.76171875 C54.55611328 31.81278809 55.25285156 32.86385742 55.97070312 33.94677734 C63.35540626 45.05759272 70.81837958 56.0459289 79.07421875 66.53125 C81 69 81 69 83 72 C83.71077969 67.40173987 84.1805564 62.88585071 84.38891602 58.23852539 C84.44890274 56.93770523 84.50888947 55.63688507 84.57069397 54.29664612 C84.63183791 52.89698602 84.69290695 51.49732266 84.75390625 50.09765625 C84.81944163 48.65033141 84.88527784 47.20302016 84.95140076 45.75572205 C85.1237145 41.96655055 85.2919686 38.17720951 85.45935059 34.38781738 C85.66151373 29.8304141 85.86876671 25.27323973 86.07515717 20.71602631 C86.3873176 13.8108509 86.69304964 6.90541783 87 0 C96.57 0 106.14 0 116 0 C116 41.58 116 83.16 116 126 C83.05042017 126 83.05042017 126 75.59375 118.60546875 C71.72331159 114.37475016 68.65510044 109.60460353 65.51953125 104.8203125 C55.11882486 88.97038041 44.48895012 73.08882116 33 58 C32.24303633 62.14007528 31.80835882 66.16974683 31.61108398 70.37255859 C31.5211039 72.23380875 31.5211039 72.23380875 31.42930603 74.13265991 C31.36815876 75.47124895 31.3070898 76.80984156 31.24609375 78.1484375 C31.18057235 79.52993214 31.11473605 80.91141188 31.04859924 82.2928772 C30.8761433 85.91271973 30.7079424 89.5327477 30.54064941 93.15283203 C30.36887915 96.85331241 30.19309315 100.55360191 30.01757812 104.25390625 C29.67405665 111.50241272 29.33720347 118.75118583 29 126 C19.43 126 9.86 126 0 126 C0 84.42 0 42.84 0 0 Z " fill="#FFFFFF" transform="translate(543,9)"/>
<path d="M0 0 C13.23035287 12.5303342 22.85978723 27.6331128 23.625 46.125 C23.95944027 64.12878908 21.46842978 82.21242811 9.5 96.5 C-6.30994259 112.01343998 -26.21975375 118.71904678 -48.13525391 118.61328125 C-63.92642862 117.85681779 -76.41998343 110.31668894 -87.5 99.5 C-88.345625 98.695625 -89.19125 97.89125 -90.0625 97.0625 C-90.866875 96.216875 -91.67125 95.37125 -92.5 94.5 C-93.19996094 93.81808594 -93.89992188 93.13617188 -94.62109375 92.43359375 C-106.78697699 79.98803503 -107.89277198 65.8773648 -107.95092773 49.29663086 C-107.81403047 39.40500764 -106.63257804 32.12145857 -101.5 23.5 C-100.83484375 22.37980469 -100.1696875 21.25960937 -99.484375 20.10546875 C-90.98154898 6.9689084 -77.96291897 -7.42752132 -62.25 -11.5625 C-41.15803135 -15.01090697 -17.11629699 -14.19400238 0 0 Z M-70.5078125 28.72265625 C-78.04010495 38.6659126 -79.55383187 49.23992783 -78.5 61.5 C-76.60235241 71.79174637 -68.02238478 79.98784024 -59.73828125 85.71875 C-51.96716749 90.28041007 -42.77332405 90.28799934 -34.1875 88.3125 C-23.46221598 85.14558543 -14.84039864 79.80031736 -9.0625 69.8125 C-4.81161167 59.91344061 -4.54605321 49.45076608 -8.5 39.5 C-12.9809418 29.93672684 -18.41861186 22.67687694 -28.0625 18.0625 C-42.67829739 12.86827047 -60.11787607 17.22095619 -70.5078125 28.72265625 Z " fill="#00C4B4" transform="translate(1290.5,20.5)"/>
<path d="M0 0 C1.81274414 0.07831055 1.81274414 0.07831055 3.66210938 0.15820312 C6.62921084 0.28720754 9.59591748 0.4221435 12.5625 0.5625 C19.54266291 16.88787456 26.34615453 33.28076101 33.06738281 49.71411133 C36.91529863 59.11995638 40.78073516 68.51819264 44.671875 77.90625 C45.10056885 78.94118591 45.5292627 79.97612183 45.97094727 81.04241943 C48.51055347 87.17313944 48.51055347 87.17313944 51.05493164 93.30187988 C62.5625 120.99116985 62.5625 120.99116985 62.5625 126.5625 C50.6825 126.5625 38.8025 126.5625 26.5625 126.5625 C24.5825 120.6225 22.6025 114.6825 20.5625 108.5625 C3.23442323 107.15468737 -14.09840271 105.82729635 -31.4375 104.5625 C-31.50743164 105.12235596 -31.57736328 105.68221191 -31.64941406 106.2590332 C-31.97726677 108.80041879 -32.3320436 111.33733444 -32.6875 113.875 C-32.79707031 114.75607422 -32.90664063 115.63714844 -33.01953125 116.54492188 C-33.14199219 117.39248047 -33.26445313 118.24003906 -33.390625 119.11328125 C-33.54772949 120.28370972 -33.54772949 120.28370972 -33.70800781 121.4777832 C-34.71964955 124.36881693 -35.71755013 125.15486498 -38.4375 126.5625 C-41.82910156 126.90307617 -41.82910156 126.90307617 -45.828125 126.85546875 C-46.53273865 126.85122391 -47.23735229 126.84697906 -47.96331787 126.84260559 C-50.20510712 126.82586538 -52.44598431 126.78822404 -54.6875 126.75 C-56.21092448 126.73494704 -57.73436311 126.7212597 -59.2578125 126.70898438 C-62.98466941 126.67597791 -66.71099563 126.62422854 -70.4375 126.5625 C-65.72890182 112.91797606 -60.80951539 99.36947123 -55.6875 85.875 C-55.33143677 84.93514252 -54.97537354 83.99528503 -54.60852051 83.02694702 C-48.92908635 68.03948178 -43.20583697 53.06856278 -37.43688965 38.11532593 C-36.61119223 35.97385729 -35.78702686 33.83179724 -34.96447754 31.68911743 C-33.80946626 28.6827049 -32.64783275 25.67893353 -31.484375 22.67578125 C-31.14853394 21.79841309 -30.81269287 20.92104492 -30.4666748 20.01708984 C-24.45679296 4.58179296 -24.45679296 4.58179296 -20.4375 0.5625 C-13.70665349 -1.01400963 -6.85265613 -0.32524882 0 0 Z M-7.4375 39.5625 C-9.15898377 44.1477819 -10.86751778 48.73760765 -12.56445312 53.33203125 C-13.14298519 54.89290299 -13.72497685 56.45249712 -14.31054688 58.01074219 C-15.15376546 60.256457 -15.98425529 62.5065389 -16.8125 64.7578125 C-17.07498535 65.4486795 -17.3374707 66.13954651 -17.60791016 66.85134888 C-19.18309129 71.18012572 -19.4375 73.76046476 -19.4375 78.5625 C-9.5375 78.5625 0.3625 78.5625 10.5625 78.5625 C8.53088506 64.34119541 5.66658538 50.46614371 -5.4375 40.5625 C-6.0975 40.2325 -6.7575 39.9025 -7.4375 39.5625 Z " fill="#00C4B4" transform="translate(953.4375,8.4375)"/>
<path d="M0 0 C1.88428711 0.08507813 1.88428711 0.08507813 3.80664062 0.171875 C6.8925585 0.31267734 9.97757958 0.4640255 13.0625 0.625 C21.79275287 22.60035677 30.51921901 44.57721455 39.24131775 66.55580902 C40.01860099 68.51438456 40.79596602 70.47292762 41.57336426 72.43145752 C44.06838776 78.71760233 46.56197958 85.00430903 49.05227661 91.29232788 C49.76303314 93.08635573 50.47435021 94.8801616 51.18624878 96.67373657 C52.15826817 99.12302623 53.12825214 101.57311179 54.09765625 104.0234375 C54.37348541 104.71719986 54.64931458 105.41096222 54.9335022 106.12574768 C55.65535319 107.95406774 56.35956873 109.78932282 57.0625 111.625 C57.4536499 112.58615723 57.8447998 113.54731445 58.24780273 114.53759766 C59.0625 117.625 59.0625 117.625 59.0625 126.625 C48.5025 126.625 37.9425 126.625 27.0625 126.625 C26.0725 123.36625 25.0825 120.1075 24.0625 116.75 C23.74925781 115.72406738 23.43601562 114.69813477 23.11328125 113.64111328 C22.86964844 112.83399902 22.62601562 112.02688477 22.375 111.1953125 C22.12363281 110.36789551 21.87226562 109.54047852 21.61328125 108.68798828 C21.0625 106.625 21.0625 106.625 21.0625 104.625 C3.5725 104.625 -13.9175 104.625 -31.9375 104.625 C-32.2675 106.935 -32.5975 109.245 -32.9375 111.625 C-33.56138323 114.0945378 -34.22811144 116.5536527 -34.9375 119 C-35.4634375 120.83691406 -35.4634375 120.83691406 -36 122.7109375 C-36.9375 125.625 -36.9375 125.625 -37.9375 126.625 C-40.3131852 126.7133967 -42.65958674 126.74030305 -45.03515625 126.72265625 C-46.09844398 126.72053383 -46.09844398 126.72053383 -47.18321228 126.71836853 C-49.45551712 126.71275443 -51.72772475 126.70019963 -54 126.6875 C-55.53710796 126.68248681 -57.07421745 126.67792359 -58.61132812 126.67382812 C-62.38675642 126.66278042 -66.16211171 126.64550641 -69.9375 126.625 C-67.79285117 118.2110027 -65.12366417 110.04821166 -62.2109375 101.87109375 C-61.86138567 100.88748273 -61.86138567 100.88748273 -61.50477219 99.88400078 C-55.60320076 83.32341147 -49.11367568 66.99554619 -42.56494141 50.68237305 C-40.87126533 46.46278529 -39.19046057 42.23819389 -37.51276588 38.01223087 C-36.19705925 34.7027859 -34.87410489 31.39627509 -33.54902267 28.09057426 C-32.92554 26.53234955 -32.30440365 24.97318363 -31.68581009 23.41301155 C-23.57928207 2.99325366 -23.57928207 2.99325366 -17.99609375 0.1015625 C-12.11795185 -0.99152651 -5.92860689 -0.31088657 0 0 Z M-6.9375 35.625 C-8.66771468 40.13383516 -10.3756591 44.6502919 -12.06445312 49.17480469 C-12.64059691 50.70925474 -13.22251553 52.24155047 -13.81054688 53.77148438 C-14.66023995 55.98531054 -15.48808533 58.20634264 -16.3125 60.4296875 C-16.57498535 61.09990936 -16.8374707 61.77013123 -17.10791016 62.46066284 C-19.27302721 68.40792791 -18.9375 71.67179602 -18.9375 78.625 C-9.0375 78.625 0.8625 78.625 11.0625 78.625 C9.26679366 72.63931218 7.4851041 66.80438194 5.3984375 60.9375 C5.16089752 60.26831543 4.92335754 59.59913086 4.67861938 58.90966797 C4.18404556 57.51797776 3.68830518 56.12670158 3.19140625 54.73583984 C2.42937893 52.60226206 1.67145625 50.46725777 0.9140625 48.33203125 C-1.25731279 41.87212642 -1.25731279 41.87212642 -3.9375 35.625 C-4.9275 35.625 -5.9175 35.625 -6.9375 35.625 Z " fill="#FFFFFF" transform="translate(77.9375,8.375)"/>
<path d="M0 0 C10.89 0 21.78 0 33 0 C43 28 53 56 63 84 C65.97161753 77.58620933 68.81619399 71.16816991 71.3125 64.5546875 C71.60345551 63.7931134 71.89441101 63.03153931 72.19418335 62.24688721 C72.81323212 60.62592961 73.43083314 59.00441845 74.04705811 57.38238525 C75.68220447 53.07998036 77.32991545 48.78238852 78.9765625 44.484375 C79.31007721 43.61318024 79.64359192 42.74198547 79.98721313 41.84439087 C83.1271007 33.65028158 86.30763825 25.47244239 89.51806641 17.3057251 C90.08810897 15.85508046 90.6571242 14.40403169 91.22509766 12.95257568 C92.00935689 10.94908553 92.79705812 8.94698716 93.5859375 6.9453125 C94.0298584 5.81625488 94.4737793 4.68719727 94.93115234 3.52392578 C96 1 96 1 97 0 C99.3756852 -0.0883967 101.72208674 -0.11530305 104.09765625 -0.09765625 C105.16094398 -0.09553383 105.16094398 -0.09553383 106.24571228 -0.09336853 C108.51801712 -0.08775443 110.79022475 -0.07519963 113.0625 -0.0625 C114.59960796 -0.05748681 116.13671745 -0.05292359 117.67382812 -0.04882812 C121.44925642 -0.03778042 125.22461171 -0.02050641 129 0 C128.41101357 4.93015126 127.38143397 9.40044251 125.83984375 14.1171875 C125.61888031 14.79396545 125.39791687 15.47074341 125.17025757 16.16802979 C124.4345664 18.40662793 123.68747801 20.64114978 122.9375 22.875 C122.67601166 23.65776306 122.41452332 24.44052612 122.14511108 25.24700928 C115.48409632 45.11047832 107.8101246 64.56560386 100 84 C99.42013336 85.44327667 99.42013336 85.44327667 98.82855225 86.91571045 C93.58545184 99.95730708 88.30393622 112.98303771 83 126 C71.12 126 59.24 126 47 126 C33.33909439 97.12581314 21.05385101 67.75194427 9.125 38.125 C8.7780307 37.26724976 8.4310614 36.40949951 8.07357788 35.52575684 C7.08762038 33.08451771 6.10906085 30.64044795 5.1328125 28.1953125 C4.8439769 27.48233002 4.5551413 26.76934753 4.2575531 26.03475952 C0.65462806 16.9454535 0 10.18737799 0 0 Z " fill="#FFFFFF" transform="translate(283,9)"/>
<path d="M0 0 C0.98661621 0.23529419 0.98661621 0.23529419 1.99316406 0.4753418 C8.35619274 2.16841413 13.00786251 5.26840735 17.25 10.25 C17.82234375 10.91 18.3946875 11.57 18.984375 12.25 C21.08167206 15.01756725 22.30661346 17.20434357 22.94140625 20.63671875 C22.30088454 24.42883399 20.08520771 26.47016918 17.4375 29.0625 C16.97150391 29.56458984 16.50550781 30.06667969 16.02539062 30.58398438 C13.42261317 33.18676183 11.79138064 34.21193525 8.12109375 34.69140625 C4.18924341 34.21211921 0.43758051 33.41730142 -3.375 32.375 C-4.77841822 32.00694351 -6.18206325 31.63975073 -7.5859375 31.2734375 C-8.25592773 31.09651367 -8.92591797 30.91958984 -9.61621094 30.73730469 C-13.22187379 29.80458008 -16.85893758 29.03022766 -20.5 28.25 C-20.5 32.21 -20.5 36.17 -20.5 40.25 C-19.62690186 40.52312012 -18.75380371 40.79624023 -17.85424805 41.07763672 C-12.41086731 42.98018525 -7.42218661 45.72218335 -2.3125 48.375 C-1.23935547 48.91898438 -0.16621094 49.46296875 0.93945312 50.0234375 C11.75955944 55.62658996 24.53780543 62.40888335 29.5 74.25 C32.30899908 86.89049588 31.56715834 102.00180557 25.5 113.5625 C19.26047184 122.52134491 7.48786987 126.64971368 -2.80078125 128.7109375 C-5.04364408 129.01435953 -7.23828492 129.16173795 -9.5 129.25 C-10.50933594 129.3015625 -11.51867188 129.353125 -12.55859375 129.40625 C-29.40253601 129.88240384 -42.94284369 123.23276964 -55.5 112.25 C-58.39426457 108.99223775 -59.71418462 105.57626862 -60.1875 101.25 C-59.90021671 96.98999927 -58.10589379 94.77938114 -54.97265625 92 C-51.86973903 89.80393853 -48.67757085 87.95030157 -45.3125 86.1875 C-44.40346924 85.70204712 -44.40346924 85.70204712 -43.47607422 85.20678711 C-39.11838143 83.071241 -39.11838143 83.071241 -36.17578125 83.921875 C-34.5 85.25 -34.5 85.25 -32.875 87.5625 C-27.62358844 93.50488677 -21.45095058 95.4100519 -13.7253418 95.94824219 C-10.31569959 96.11399606 -6.91349624 96.2064403 -3.5 96.25 C-3.83 92.29 -4.16 88.33 -4.5 84.25 C-5.45253662 83.83226318 -6.40507324 83.41452637 -7.38647461 82.98413086 C-10.96494144 81.41075112 -14.53579627 79.82068722 -18.10473633 78.22583008 C-19.64181392 77.54166566 -21.18084265 76.86186555 -22.72192383 76.18676758 C-36.05140968 70.34186807 -46.9992571 64.79322562 -53.53125 51.0859375 C-56.99016083 41.76609443 -57.56451044 27.40855737 -53.66015625 18.12890625 C-47.28164487 7.79872452 -35.93228229 2.09975337 -24.6640625 -1.3046875 C-16.43686134 -2.99764947 -8.05947402 -1.9716592 0 0 Z " fill="#00C4B4" transform="translate(1108.5,9.75)"/>
<path d="M0 0 C0.79019531 -0.01224609 1.58039063 -0.02449219 2.39453125 -0.03710938 C7.03062006 -0.04868031 10.78224398 0.35646337 15.125 2.1875 C18.37150455 5.43400455 17.24580974 14.54582368 17.26382446 18.94421387 C17.26084854 20.14165222 17.26084854 20.14165222 17.2578125 21.36328125 C17.25979141 22.66501282 17.25979141 22.66501282 17.2618103 23.99304199 C17.26372419 26.82873101 17.25737815 29.66432097 17.25 32.5 C17.24867065 33.95809586 17.24867065 33.95809586 17.24731445 35.44564819 C17.22406192 57.37033017 16.69613784 79.27008541 16.125 101.1875 C29.655 101.1875 43.185 101.1875 57.125 101.1875 C57.125 109.7675 57.125 118.3475 57.125 127.1875 C33.035 127.1875 8.945 127.1875 -15.875 127.1875 C-15.99549101 96.56939679 -15.99549101 96.56939679 -16.0257616 81.4790678 C-16.0424057 73.30768819 -16.06355808 65.13640014 -16.10131836 56.96508789 C-16.1311937 50.49699762 -16.15056855 44.02897632 -16.15726548 37.56081897 C-16.16118095 34.13505536 -16.17040093 30.70948912 -16.19219017 27.28378868 C-16.21630103 23.46218505 -16.21697119 19.64077558 -16.21557617 15.8190918 C-16.226362 14.67973679 -16.23714783 13.54038177 -16.2482605 12.36650085 C-16.24413651 11.32743591 -16.24001251 10.28837097 -16.23576355 9.21781921 C-16.23852893 8.3135403 -16.24129431 7.40926138 -16.24414349 6.47758007 C-15.8005382 3.72555635 -15.05772436 2.86463253 -12.875 1.1875 C-8.70580919 -0.27482812 -4.36592698 0.0035266 0 0 Z " fill="#FFFFFF" transform="translate(195.875,7.8125)"/>
<path d="M0 0 C9.9 0 19.8 0 30 0 C30.34410494 20.37592839 30.66535142 40.7518935 30.94604492 61.12878418 C30.99392436 64.56407978 31.04444102 67.99932399 31.09570312 71.43457031 C31.15732824 75.68724997 31.20353169 79.93972041 31.23217773 84.19274902 C31.24388423 85.62615271 31.26081099 87.05952511 31.28344727 88.49279785 C31.45711064 99.89373004 30.48335712 110.88146202 23 120 C18.23183052 124.89390214 13.91892797 128.71643951 6.86206055 129.22705078 C5.71519775 129.21657715 4.56833496 129.20610352 3.38671875 129.1953125 C2.26225342 129.19031738 1.13778809 129.18532227 -0.02075195 129.18017578 C-1.43702881 129.16196777 -2.85330566 129.14375977 -4.3125 129.125 C-8.829375 129.08375 -13.34625 129.0425 -18 129 C-18 119.43 -18 109.86 -18 100 C-13.9041014 98.63470047 -11.20509669 97.74591788 -7.125 97.375 C-5.95324219 97.26285156 -5.95324219 97.26285156 -4.7578125 97.1484375 C-4.17773438 97.09945312 -3.59765625 97.05046875 -3 97 C-2.97716446 96.19773987 -2.95432892 95.39547974 -2.93080139 94.56890869 C-2.7113737 86.86634089 -2.49094986 79.16380244 -2.26950932 71.46129227 C-2.1558009 67.50497109 -2.04242823 63.54864099 -1.92993164 59.59228516 C-1.36472552 39.72470271 -0.73392365 19.86222194 0 0 Z " fill="#00C4B3" transform="translate(808,9)"/>
<path d="M0 0 C9.57 0 19.14 0 29 0 C29 41.58 29 83.16 29 126 C19.43 126 9.86 126 0 126 C0 84.42 0 42.84 0 0 Z " fill="#FFFFFF" transform="translate(455,9)"/>
</svg>
