<svg xmlns="http://www.w3.org/2000/svg" width="500" height="58" viewBox="0 0 500 58" version="1.1"><path d="M 14.574 23.253 C 11.315 31.639, 7.829 40.638, 6.828 43.250 L 5.008 48 9.844 48 C 14.599 48, 14.702 47.933, 16 44 L 17.320 40 25.620 40 L 33.920 40 35.118 44 C 36.305 47.963, 36.362 48, 41.242 48 C 43.950 48, 46.017 47.605, 45.833 47.121 C 45.650 46.638, 42.151 37.638, 38.057 27.121 L 30.614 8 25.557 8.003 L 20.500 8.007 14.574 23.253 M 61 28 L 61 48 72.060 48 L 83.121 48 82.810 44.250 L 82.500 40.500 75.989 40 L 69.477 39.500 69.546 30.500 C 69.584 25.550, 69.412 18.462, 69.164 14.750 L 68.713 8 64.856 8 L 61 8 61 28 M 93 8.485 C 93 8.752, 96.205 17.189, 100.123 27.235 C 104.041 37.281, 107.472 46.084, 107.748 46.798 C 108.092 47.685, 109.868 48.001, 113.357 47.798 L 118.464 47.500 126.061 28 L 133.659 8.500 129.190 8.190 C 126.732 8.019, 124.391 8.244, 123.987 8.690 C 123.584 9.135, 121.103 15.708, 118.473 23.296 C 115.844 30.884, 113.369 36.734, 112.973 36.296 C 112.577 35.858, 110.061 29.313, 107.381 21.750 L 102.510 8 97.755 8 C 95.140 8, 93 8.218, 93 8.485 M 148 28 L 148 48 152.500 48 L 157 48 157 28 L 157 8 152.500 8 L 148 8 148 28 M 176 27.945 L 176 48 180.470 48 L 184.940 48 185.220 35.435 L 185.500 22.869 194.476 35.435 L 203.452 48 208.226 48 L 213 48 213 28 L 213 8 208.529 8 L 204.058 8 203.779 20.904 L 203.500 33.807 194.458 21.154 L 185.416 8.500 180.708 8.195 L 176 7.890 176 27.945 M 22.930 24.722 C 21.594 28.405, 20.350 31.774, 20.167 32.209 C 19.983 32.644, 22.346 33, 25.417 33 C 28.488 33, 31 32.829, 31 32.619 C 31 32.117, 25.900 18.569, 25.595 18.263 C 25.466 18.133, 24.267 21.040, 22.930 24.722" stroke="none" fill="#fbfbfb" fill-rule="evenodd"/><path d="M 346.198 8.673 C 339.955 11.750, 337.954 20.509, 342.332 25.599 C 343.614 27.090, 347.551 29.702, 351.082 31.405 C 354.612 33.107, 357.612 35.175, 357.749 36 C 358.561 40.896, 351.161 42.051, 347.352 37.623 L 345.021 34.913 341.443 37.345 L 337.865 39.776 340.918 43.254 C 349.749 53.312, 366 48.685, 366 36.112 C 366 30.162, 363.937 27.785, 355.480 23.991 C 348.916 21.046, 347.687 19.635, 349.170 16.750 C 350.287 14.579, 352.203 14.536, 356.183 16.594 C 359.152 18.130, 359.358 18.097, 361.756 15.698 C 364.750 12.705, 364.162 11.431, 358.627 8.918 C 353.561 6.618, 350.491 6.557, 346.198 8.673 M 395.176 8.138 C 390.342 9.531, 383.367 16.922, 381.962 22.142 C 376.802 41.306, 398.590 56.417, 413.869 44.270 C 423.831 36.351, 424.629 22.366, 415.632 13.368 C 409.872 7.608, 403.060 5.867, 395.176 8.138 M 260.775 23.750 L 260.500 39.500 257.696 39.822 C 255.065 40.123, 254.911 40.401, 255.196 44.322 C 255.466 48.033, 255.803 48.535, 258.216 48.813 C 261.942 49.243, 267.484 46.427, 268.861 43.405 C 269.565 41.860, 270 34.627, 270 24.453 L 270 8 265.525 8 L 261.051 8 260.775 23.750 M 300.072 10.250 C 299.589 11.488, 296.049 20.487, 292.205 30.250 L 285.216 48 290.068 48 C 294.869 48, 294.932 47.958, 296.129 43.964 L 297.338 39.927 305.833 40.214 L 314.327 40.500 315.497 44 C 316.592 47.271, 316.979 47.520, 321.420 47.808 C 327.096 48.177, 327.484 50.496, 317.727 25.750 L 310.729 8 305.840 8 C 301.696 8, 300.816 8.343, 300.072 10.250 M 439 28 L 439 48 443.471 48 L 447.942 48 448.221 34.963 L 448.500 21.925 457.786 34.963 L 467.072 48 471.536 48 L 476 48 476 28 L 476 8 471.530 8 L 467.060 8 466.780 20.641 L 466.500 33.281 457.537 20.641 L 448.574 8 443.787 8 L 439 8 439 28 M 396.256 17.029 C 390.961 19.158, 388.462 28.124, 391.517 34.033 C 395.511 41.757, 407.489 41.757, 411.483 34.033 C 416.911 23.536, 407.159 12.645, 396.256 17.029 M 302.799 25.750 L 300.321 32.500 305.271 32.806 C 307.994 32.974, 310.446 32.887, 310.721 32.612 C 311.347 31.987, 306.744 19, 305.897 19 C 305.556 19, 304.161 22.038, 302.799 25.750" stroke="none" fill="#fb3433" fill-rule="evenodd"/></svg>