<svg xmlns="http://www.w3.org/2000/svg" width="500" height="500" viewBox="0 0 500 500" version="1.1"><path d="M 13 253.167 C 8.875 263.703, 5.350 272.700, 5.167 273.161 C 4.983 273.622, 7.049 274, 9.757 274 C 14.614 274, 14.698 273.946, 16 270 L 17.320 266 25.620 266 L 33.920 266 35.118 270 C 36.306 273.966, 36.358 274, 41.265 274 C 44.818 274, 46.076 273.647, 45.726 272.750 C 45.458 272.063, 41.957 263.063, 37.945 252.750 L 30.651 234 25.575 234.006 L 20.500 234.012 13 253.167 M 60.815 234.697 C 60.612 235.139, 60.493 236.625, 60.552 238 C 60.610 239.375, 60.735 248.037, 60.829 257.250 L 61 274 72.060 274 L 83.121 274 82.810 270.250 L 82.500 266.500 76 266 L 69.500 265.500 69.500 250 L 69.500 234.500 65.342 234.197 C 63.055 234.030, 61.018 234.255, 60.815 234.697 M 93 234.485 C 93 234.752, 96.205 243.189, 100.123 253.235 C 104.041 263.281, 107.472 272.084, 107.748 272.798 C 108.092 273.685, 109.868 274.001, 113.357 273.798 L 118.464 273.500 126.061 254 L 133.659 234.500 129.190 234.190 C 126.732 234.019, 124.399 234.244, 124.005 234.690 C 123.611 235.135, 121.108 241.688, 118.444 249.250 C 115.780 256.813, 113.293 262.663, 112.917 262.250 C 112.541 261.838, 110.069 255.313, 107.423 247.750 L 102.611 234 97.806 234 C 95.163 234, 93 234.218, 93 234.485 M 148 254 L 148 274 152.500 274 L 157 274 157 254 L 157 234 152.500 234 L 148 234 148 254 M 176 253.945 L 176 274 180.470 274 L 184.940 274 185.220 261.443 L 185.500 248.887 194.403 261.443 L 203.306 274 208.153 274 L 213 274 213 254 L 213 234 208.529 234 L 204.058 234 203.779 246.904 L 203.500 259.807 194.458 247.154 L 185.416 234.500 180.708 234.195 L 176 233.890 176 253.945 M 22.771 251.557 L 20.094 259 25.547 259 C 28.546 259, 31 258.829, 31 258.619 C 31 258.162, 25.914 244.584, 25.639 244.307 C 25.534 244.201, 24.243 247.464, 22.771 251.557" stroke="none" fill="#fbfbfb" fill-rule="evenodd"/><path d="M 346.198 234.617 C 340.062 237.744, 338.032 246.229, 342.163 251.480 C 343.353 252.993, 347.186 255.513, 350.682 257.081 C 357.514 260.147, 359.181 262.248, 356.726 264.703 C 354.291 267.138, 349.928 266.618, 347.317 263.582 L 345.021 260.913 341.443 263.345 L 337.865 265.776 340.918 269.254 C 344.434 273.259, 351.087 275.579, 355.973 274.506 C 357.720 274.122, 360.690 272.455, 362.574 270.801 C 365.652 268.099, 366 267.263, 366 262.585 C 366 256.112, 364.129 253.872, 355.480 249.991 C 348.916 247.046, 347.687 245.635, 349.170 242.750 C 350.304 240.546, 352.396 240.530, 356.069 242.700 C 358.857 244.347, 359.024 244.326, 361.473 242.025 C 364.667 239.025, 364.639 238.591, 361.085 236.061 C 357.005 233.155, 350.336 232.509, 346.198 234.617 M 395.176 234.138 C 390.620 235.451, 383.399 242.900, 382.081 247.649 C 380.624 252.895, 380.728 255.977, 382.534 261.096 C 385.542 269.623, 392.319 274.382, 401.421 274.361 C 408.124 274.345, 411.989 272.770, 416.197 268.339 C 424.074 260.047, 423.830 247.567, 415.632 239.368 C 409.872 233.608, 403.060 231.867, 395.176 234.138 M 260.775 249.750 L 260.500 265.500 257.696 265.822 C 255.065 266.123, 254.911 266.401, 255.196 270.322 C 255.448 273.792, 255.884 274.555, 257.767 274.822 C 259.014 274.999, 261.610 274.624, 263.535 273.989 C 269.275 272.094, 270 269.467, 270 250.550 L 270 234 265.525 234 L 261.051 234 260.775 249.750 M 300.072 236.250 C 299.589 237.488, 296.049 246.488, 292.205 256.250 L 285.216 274 290.068 274 C 294.869 274, 294.932 273.958, 296.129 269.964 L 297.338 265.927 305.833 266.214 L 314.327 266.500 315.497 270 C 316.592 273.271, 316.979 273.520, 321.420 273.808 C 327.089 274.176, 327.480 276.534, 317.758 251.750 L 310.794 234 305.872 234 C 301.695 234, 300.818 234.340, 300.072 236.250 M 439 254 L 439 274 443.471 274 L 447.942 274 448.221 261.060 L 448.500 248.121 457.817 261.060 L 467.134 274 471.567 274 L 476 274 476 254 L 476 234 471.530 234 L 467.060 234 466.780 246.641 L 466.500 259.281 457.537 246.641 L 448.574 234 443.787 234 L 439 234 439 254 M 395.763 243.565 C 390.421 246.464, 388.474 254.148, 391.566 260.128 C 393.148 263.186, 398.156 266, 402.018 266 C 405.389 266, 409.852 263.187, 411.483 260.033 C 417.053 249.261, 406.206 237.899, 395.763 243.565 M 302.799 251.750 L 300.321 258.500 305.271 258.806 C 307.994 258.974, 310.446 258.887, 310.721 258.612 C 311.347 257.987, 306.744 245, 305.897 245 C 305.556 245, 304.161 248.037, 302.799 251.750" stroke="none" fill="#fc3433" fill-rule="evenodd"/></svg>