<svg xmlns="http://www.w3.org/2000/svg" width="500" height="500" viewBox="0 0 500 500" version="1.1"><path d="M 13 385.167 C 8.875 395.703, 5.350 404.700, 5.167 405.161 C 4.983 405.622, 7.103 406, 9.877 406 C 14.894 406, 14.926 405.979, 16.118 402 L 17.317 398 25.618 398 L 33.920 398 35.118 402 C 36.306 405.966, 36.358 406, 41.265 406 C 45.562 406, 46.127 405.769, 45.558 404.250 C 45.197 403.288, 41.697 394.288, 37.780 384.250 L 30.658 366 25.579 366.006 L 20.500 366.012 13 385.167 M 60.924 368.250 C 60.882 369.488, 60.770 378.487, 60.674 388.250 L 60.500 406 71.810 406 L 83.121 406 82.810 402.250 L 82.500 398.500 76.250 398.202 L 70 397.905 70 381.952 L 70 366 65.500 366 C 61.523 366, 60.991 366.261, 60.924 368.250 M 93.572 368.250 C 93.961 369.488, 97.421 378.509, 101.261 388.298 L 108.244 406.096 113.335 405.798 L 118.427 405.500 126.087 386 L 133.747 366.500 129.234 366.190 C 126.752 366.019, 124.391 366.244, 123.987 366.690 C 123.584 367.135, 121.103 373.708, 118.473 381.296 C 115.844 388.884, 113.369 394.734, 112.973 394.296 C 112.578 393.858, 110.110 387.313, 107.490 379.750 L 102.725 366 97.795 366 C 93.140 366, 92.905 366.125, 93.572 368.250 M 148 386 L 148 406 152.500 406 L 157 406 157 386 L 157 366 152.500 366 L 148 366 148 386 M 176 385.945 L 176 406 180.470 406 L 184.940 406 185.220 393.443 L 185.500 380.887 194.403 393.443 L 203.306 406 208.153 406 L 213 406 213 386 L 213 366 208.529 366 L 204.058 366 203.779 378.904 L 203.500 391.807 194.458 379.154 L 185.416 366.500 180.708 366.195 L 176 365.890 176 385.945 M 22.771 383.557 L 20.094 391 25.547 391 C 28.546 391, 31 390.829, 31 390.619 C 31 390.162, 25.914 376.584, 25.639 376.307 C 25.534 376.201, 24.243 379.464, 22.771 383.557" stroke="none" fill="#fbfbfb" fill-rule="evenodd"/><path d="M 232.742 209.702 C 230.279 218.275, 187.332 331.365, 185.455 334.222 C 182.662 338.472, 179.007 340.656, 173.105 341.599 C 164.597 342.960, 169.534 344, 184.500 344 C 199.306 344, 204.416 342.962, 196.130 341.637 C 188.416 340.403, 188.268 336.454, 195.241 318 L 199.586 306.500 225.932 306.500 L 252.278 306.500 257.340 320.348 C 262.077 333.310, 262.307 334.365, 260.935 336.848 C 259.958 338.615, 257.892 340, 254.740 341 C 252.139 341.825, 250.008 342.837, 250.005 343.250 C 250.002 343.663, 261.250 344, 275 344 C 289.912 344, 300 343.621, 300 343.061 C 300 342.545, 298.022 341.826, 295.603 341.463 C 289.798 340.593, 285.330 337.764, 283.431 333.757 C 282.582 331.966, 271.670 303.055, 259.183 269.512 C 236.911 209.682, 234.387 203.974, 232.742 209.702 M 269 209.966 C 269 210.497, 271.340 211.242, 274.201 211.621 C 281.686 212.614, 283.529 214.847, 284.433 224.015 C 284.834 228.087, 285.048 253.261, 284.909 279.959 C 284.680 323.980, 284.814 328.803, 286.354 331.750 C 287.287 333.538, 288.452 335, 288.941 335 C 290.631 335, 297.984 325.728, 300.737 320.124 L 303.500 314.500 304 266.500 C 304.519 216.657, 304.640 215.309, 308.773 213.139 C 309.723 212.640, 312.413 211.915, 314.750 211.528 C 324.773 209.868, 317.651 209, 294 209 C 278.595 209, 269 209.371, 269 209.966 M 213.171 269.750 C 206.474 287.762, 200.996 302.837, 200.997 303.250 C 200.999 303.663, 212.298 304, 226.107 304 C 245.761 304, 251.118 303.729, 250.773 302.750 C 244.817 285.884, 226.343 237.001, 225.924 237 C 225.607 237, 219.869 251.738, 213.171 269.750 M 247.826 319.712 C 243.127 322.627, 241.899 327.957, 244.306 334.982 C 245.459 338.345, 245.654 338.454, 249.991 338.138 C 255.742 337.721, 258 336.481, 258 333.740 C 258 330.557, 252.877 317.995, 251.592 318.027 C 250.991 318.041, 249.297 318.800, 247.826 319.712 M 347.378 366.437 C 343.065 368.314, 341 371.666, 341 376.788 C 341 383.094, 342.294 384.711, 350.498 388.660 C 354.550 390.610, 358.122 392.875, 358.436 393.693 C 360.385 398.773, 349.642 399.937, 346.966 394.936 C 346.007 393.145, 345.856 393.152, 342.487 395.140 C 340.569 396.272, 339 397.568, 339 398.022 C 339 399.974, 345.441 405.042, 349.212 406.057 C 354.970 407.608, 359.764 406.436, 363.679 402.521 C 366.466 399.734, 367 398.469, 367 394.656 C 367 388.795, 364.534 385.890, 356 381.695 C 349.208 378.356, 347.722 375.839, 351.235 373.624 C 352.569 372.782, 353.794 372.973, 356.530 374.446 L 360.091 376.364 362.669 373.786 C 365.752 370.702, 365.196 369.447, 359.627 366.918 C 354.756 364.706, 351.637 364.583, 347.378 366.437 M 395.637 366.408 C 380.901 371.879, 377.436 391.274, 389.330 401.716 C 402.420 413.210, 422.299 403.691, 422.325 385.916 C 422.346 371.779, 408.477 361.640, 395.637 366.408 M 261.775 381.750 L 261.500 397.500 258.750 397.461 C 256.117 397.423, 256 397.631, 256 402.341 L 256 407.260 260.618 406.740 C 263.803 406.381, 266.052 405.403, 267.868 403.589 C 270.482 400.978, 270.502 400.840, 270.814 383.480 L 271.129 366 266.590 366 L 262.051 366 261.775 381.750 M 295.071 382.770 C 291.534 391.972, 288.041 400.962, 287.307 402.750 L 285.973 406 290.828 406 C 295.626 406, 295.698 405.953, 296.882 402 L 298.080 398 306.500 398 L 314.920 398 316.118 402 C 317.305 405.963, 317.362 406, 322.242 406 C 324.950 406, 327.017 405.605, 326.833 405.121 C 326.650 404.638, 323.151 395.638, 319.057 385.121 L 311.614 366 306.557 366.020 L 301.500 366.040 295.071 382.770 M 440 386 L 440 406 444.500 406 L 449 406 449 392.822 L 449 379.645 458.250 392.781 L 467.500 405.917 472.250 405.958 L 477 406 477 386 L 477 366 472.500 366 L 468 366 468 379.178 L 468 392.355 458.750 379.219 L 449.500 366.083 444.750 366.042 L 440 366 440 386 M 397.374 374.985 C 393.804 376.427, 391 381.353, 391 386.182 C 391 391.176, 392.850 394.354, 397.011 396.506 C 407.432 401.894, 418.532 389.395, 412.054 379.567 C 408.741 374.542, 402.948 372.734, 397.374 374.985 M 303.930 382.722 C 302.594 386.405, 301.350 389.774, 301.167 390.209 C 300.983 390.644, 303.346 391, 306.417 391 C 309.488 391, 312 390.785, 312 390.523 C 312 389.897, 307.029 376.696, 306.651 376.318 C 306.491 376.158, 305.267 379.040, 303.930 382.722" stroke="none" fill="#fc3434" fill-rule="evenodd"/></svg>